<svg width="30" height="30" viewBox="0 0 24 24" xmlns="http://www.w3.org/2000/svg">
    <g>
        <g
            fillRule="evenodd"
            clipRule="evenodd"
        >
            <path
                fill="#adb4bc"
                d="M22 12c0-3.738 0-5.608-.804-7A6 6 0 0 0 19 2.804C17.608 2 15.739 2 12 2c-3.738 0-5.608 0-7 .804A6 6 0 0 0 2.804 5C2 6.392 2 8.262 2 12c0 3.739 0 5.608.804 7A6 6 0 0 0 5 21.196C6.392 22 8.262 22 12 22c3.739 0 5.608 0 7-.804A6.002 6.002 0 0 0 21.196 19C22 17.608 22 15.739 22 12zM8.53 10.47a.75.75 0 0 0-1.06 1.06l2.585 2.586a2.75 2.75 0 0 0 3.89 0l2.585-2.586a.75.75 0 1 0-1.06-1.06l-2.586 2.585a1.25 1.25 0 0 1-1.768 0z"
                opacity="1"
                data-original="#adb4bc"
            ></path>
            <path
                fill="#363538"
                d="M8.53 10.47a.75.75 0 0 0-1.06 1.06l2.585 2.586a2.75 2.75 0 0 0 3.89 0l2.585-2.586a.75.75 0 1 0-1.06-1.06l-2.586 2.585a1.25 1.25 0 0 1-1.768 0z"
                opacity="1"
                data-original="#363538"
            ></path>

        </g>
    </g>
</svg>