<svg width="30" height="30" viewBox="0 0 24 24" xmlns="http://www.w3.org/2000/svg">
    <g>
        <g
            fillRule="evenodd"
            clipRule="evenodd"
        >
            <path
                fill="#adb4bc"
                d="M21.196 5C22 6.392 22 8.262 22 12s0 5.608-.804 7A6 6 0 0 1 19 21.196C17.608 22 15.738 22 12 22s-5.608 0-7-.804A6 6 0 0 1 2.804 19C2 17.608 2 15.738 2 12s0-5.608.804-7A6 6 0 0 1 5 2.804C6.392 2 8.262 2 12 2s5.608 0 7 .804A6 6 0 0 1 21.196 5zM12 5.25a.75.75 0 0 1 .53.22l4 4a.75.75 0 1 1-1.06 1.06L12 7.06l-3.47 3.47a.75.75 0 1 1-1.06-1.06l4-4a.75.75 0 0 1 .53-.22zm-3.47 8.22a.75.75 0 0 0-1.06 1.06l4 4a.75.75 0 0 0 1.06 0l4-4a.75.75 0 0 0-1.06-1.06L12 16.94z"
                data-original="#adb4bc"
            ></path>
            <path
                fill="#363538"
                d="M12 5.25a.75.75 0 0 1 .53.22l4 4a.75.75 0 1 1-1.06 1.06L12 7.06l-3.47 3.47a.75.75 0 1 1-1.06-1.06l4-4a.75.75 0 0 1 .53-.22zm-3.47 8.22a.75.75 0 0 0-1.06 1.06l4 4a.75.75 0 0 0 1.06 0l4-4a.75.75 0 0 0-1.06-1.06L12 16.94z"
                data-original="#363538"
            ></path>
        </g>
    </g>
</svg>